<svg width="808" height="456" viewBox="0 0 808 456" fill="none" xmlns="http://www.w3.org/2000/svg">
<path d="M417 267.5C322.6 224.3 99.6667 328.167 0 385.5V455.5H807.5C779.1 454.3 535.333 329.667 417 267.5Z" fill="#BF1D2C" fill-opacity="0.29"/>
<path d="M200 148.5C216.5 149 242.5 159.3 214.5 196.5" stroke="#1813F5" stroke-opacity="0.7" stroke-width="3"/>
<path d="M225 204C216.6 197.6 207.167 161.333 203.5 144H85.5L5 266.5C-0.599999 275.7 23 298.333 35.5 308.5C57.1 321.3 57.5 362.833 55 382H105V343.5C185 347.1 214 293.667 218.5 266.5C207.7 242.9 214 221.667 218.5 214C218.5 214 233.4 210.4 225 204Z" fill="#62D1F4"/>
<path d="M233.5 412C179.1 347.6 55.8333 374.5 1 396V455H309.5C275.9 447 244.833 423 233.5 412Z" fill="#232121" stroke="black"/>
<path d="M190 107.5C249.2 -67.7 88.3333 11.1666 0.5 72.5V270C111.3 291.2 123 261.167 115 243.5C82.6 165.1 108.167 168.5 125 180C166.6 247.2 171 218.667 168 196C171.6 156 194.5 144.667 205.5 144C207.1 127.6 195.833 112.833 190 107.5Z" fill="#232121"/>
<path d="M134 189.5L225 161" stroke="#531EC1" stroke-width="3"/>
<path d="M673.5 114.068H330C312.8 114.068 308 113.068 308 120.068V324.568C308 332.168 314.333 332.401 317.5 331.568H673.5C684.7 331.568 685.167 326.901 684 324.568V120.068C682.8 114.468 676.5 113.734 673.5 114.068Z" fill="#A70817" fill-opacity="0.54"/>
<path d="M773.5 31.0676H430C412.8 31.0676 408 30.0676 408 37.0676V241.568C408 249.168 414.333 249.401 417.5 248.568H773.5C784.7 248.568 785.167 243.901 784 241.568V37.0676C782.8 31.4676 776.5 30.7343 773.5 31.0676Z" fill="#232121"/>
<path d="M620 86H573C571.343 86 570 87.3431 570 89V180C570 181.657 571.343 183 573 183H620C621.657 183 623 181.657 623 180V89C623 87.3431 621.657 86 620 86Z" fill="#C4C4C4"/>
<path d="M597 130H581V133H597V130Z" fill="#928A8A"/>
<path d="M608 136H581V139H608V136Z" fill="#928A8A"/>
<path d="M608 142H581V145H608V142Z" fill="#928A8A"/>
<path d="M601 92H591C590.448 92 590 92.4477 590 93C590 93.5523 590.448 94 591 94H601C601.552 94 602 93.5523 602 93C602 92.4477 601.552 92 601 92Z" fill="#695A5A"/>
<path d="M596 178C598.209 178 600 176.209 600 174C600 171.791 598.209 170 596 170C593.791 170 592 171.791 592 174C592 176.209 593.791 178 596 178Z" fill="#695A5A"/>
<path d="M612 103H581V124H612V103Z" fill="#928A8A"/>
<path d="M437.5 61C439.985 61 442 58.9853 442 56.5C442 54.0147 439.985 52 437.5 52C435.015 52 433 54.0147 433 56.5C433 58.9853 435.015 61 437.5 61Z" fill="#C4C4C4"/>
<path d="M452.5 61C454.985 61 457 58.9853 457 56.5C457 54.0147 454.985 52 452.5 52C450.015 52 448 54.0147 448 56.5C448 58.9853 450.015 61 452.5 61Z" fill="#C4C4C4"/>
<path d="M467.5 61C469.985 61 472 58.9853 472 56.5C472 54.0147 469.985 52 467.5 52C465.015 52 463 54.0147 463 56.5C463 58.9853 465.015 61 467.5 61Z" fill="#C4C4C4"/>
<path d="M337.5 139C339.985 139 342 136.985 342 134.5C342 132.015 339.985 130 337.5 130C335.015 130 333 132.015 333 134.5C333 136.985 335.015 139 337.5 139Z" fill="#C4C4C4"/>
<path d="M352.5 139C354.985 139 357 136.985 357 134.5C357 132.015 354.985 130 352.5 130C350.015 130 348 132.015 348 134.5C348 136.985 350.015 139 352.5 139Z" fill="#C4C4C4"/>
<path d="M367.5 139C369.985 139 372 136.985 372 134.5C372 132.015 369.985 130 367.5 130C365.015 130 363 132.015 363 134.5C363 136.985 365.015 139 367.5 139Z" fill="#C4C4C4"/>
</svg>
